<svg width="162" height="27" viewBox="0 0 162 27" fill="none" xmlns="http://www.w3.org/2000/svg">
<path d="M150.659 14.1007C150.659 10.1355 152.738 6.35242 157.916 6.35242C160.937 6.35242 162.004 8.07933 162.004 9.58381V11.3475H161.826C160.931 10.9559 159.962 10.7554 158.983 10.759C156.795 10.759 155.59 11.971 155.59 14.9817V26.366H154.242C152.054 26.366 150.668 25.2661 150.668 23.2134L150.659 14.1007ZM15.1187 17.0431C15.1187 11.1128 18.5838 6.35943 25.0699 6.35943C31.1028 6.35943 34.5662 11.1198 34.5662 16.3548C34.5662 22.2852 31.1028 27.007 24.615 27.007C18.5838 27.007 15.1187 22.2782 15.1187 17.0501M20.2951 16.3496C20.2951 20.2675 21.7487 22.6092 25.0628 22.6092C27.9682 22.6092 29.3827 20.2675 29.3827 17.0449C29.3827 13.0919 27.8935 10.7397 24.615 10.7397C21.7487 10.7397 20.2951 13.0849 20.2951 16.3443M7.18084 1.06487H8.89032C11.1595 1.06487 12.3128 2.23132 12.3128 4.45563V19.3287C12.3128 23.4148 9.96896 26.4763 4.72504 26.4763C1.93515 26.4763 0 25.1277 0 23.597V21.2938H0.186583C1.00578 21.7685 2.49668 22.096 4.01779 22.096C6.32789 22.096 7.18084 21.1117 7.18084 19.1063V1.06487ZM37.2619 0.0140114H38.9731C40.91 0.0140114 42.2517 1.1069 42.2517 3.40477V9.12143C43.2557 7.69927 44.9705 6.13175 47.6893 6.13175C52.7911 6.13175 56.7022 10.2143 56.7022 16.0115C56.7022 21.9156 52.8284 26.6952 46.7208 26.6952C41.5817 26.6952 37.2619 22.5759 37.2619 16.6718V0.0140114ZM42.2872 15.98C42.2872 20.5005 44.2615 22.3587 47.2415 22.3587C49.7293 22.3587 51.5241 20.0241 51.5241 16.854C51.5241 12.0796 49.7737 10.4753 46.7262 10.4753C44.1939 10.4753 42.2837 12.9185 42.2837 15.98M70.2323 1.06487H72.3167C73.1517 1.04697 73.9761 1.25128 74.7032 1.65628C75.4302 2.06129 76.0331 2.652 76.4482 3.36624C78.7583 7.43306 82.5895 18.2411 83.5935 26.1523H81.5091C79.3874 26.1523 78.2714 24.9456 78.0848 23.7353C77.9183 22.393 77.681 21.0601 77.374 19.7421H67.2167C66.6978 21.8683 66.25 24.0278 65.8769 26.1523H63.9062C62.2305 26.1523 61.5623 25.2766 61.5623 23.7353C61.5623 20.1081 66.3247 5.34535 70.2323 1.05961M72.2794 5.67462C70.7903 8.27549 69.191 12.274 68.3344 15.7488H76.2243C75.3678 12.2337 73.6192 8.01978 72.2794 5.67462ZM100.001 0H101.538C103.935 0 104.985 1.3486 104.985 3.3172V17.178C104.985 22.8999 102.211 26.6917 95.2755 26.6917C89.9534 26.6917 85.8681 22.1713 85.8681 16.7769C85.8681 10.3247 89.0916 6.13175 94.9752 6.13175C97.001 6.13175 99.2116 7.51713 100.001 9.23002V0ZM90.8153 15.8206C90.8153 19.9015 92.9903 22.5636 95.8761 22.5636C98.6873 22.5636 99.9241 20.5215 99.9241 16.9591C99.9241 12.0376 97.7118 10.2511 95.0143 10.2511C92.4643 10.2511 90.8153 12.6576 90.8153 15.8294M122.133 0H123.668C126.067 0 127.118 1.3486 127.118 3.3172V17.178C127.118 22.8999 124.344 26.6917 117.41 26.6917C112.079 26.6917 108.002 22.1713 108.002 16.7769C108.002 10.3247 111.224 6.13175 117.109 6.13175C119.133 6.13175 121.344 7.51713 122.133 9.23002V0ZM112.948 15.8206C112.948 19.9015 115.125 22.5636 118.009 22.5636C120.82 22.5636 122.057 20.5215 122.057 16.9591C122.057 12.0376 119.846 10.2511 117.147 10.2511C114.599 10.2511 112.948 12.6576 112.948 15.8294M130.142 17.0887C130.142 10.4981 134.229 6.36118 139.944 6.36118C144.1 6.36118 147.962 9.28957 147.962 14.0132C147.962 17.6369 145.177 18.8086 138.57 18.8086H135.302C135.674 21.2991 137.968 22.8719 140.909 22.8719C142.988 22.8719 145.437 22.4691 147.034 21.0049H147.212V22.5426C147.212 25.0682 145.469 27.0088 139.972 27.0088C134.997 27.0088 130.135 23.1293 130.135 17.0887M135.288 14.6717L135.251 15.3302H137.492C142.208 15.3302 143.285 14.8188 143.285 13.4264C143.285 11.4508 141.799 10.4613 139.498 10.4613C137.083 10.4613 135.411 12.4019 135.302 14.6647" fill="white"/>
</svg>
